<svg id="Capa_1" enable-background="new 0 0 512 512" height="512" viewBox="0 0 512 512" width="512" xmlns="http://www.w3.org/2000/svg"><g><path d="m441.062 0h-370.124c-22.504 0-40.813 18.309-40.813 40.812v370.125c0 18.806 12.79 34.673 30.125 39.383v46.68c0 8.284 6.716 15 15 15h60.25c8.284 0 15-6.716 15-15v-45.25h211v45.25c0 8.284 6.716 15 15 15h60.25c8.284 0 15-6.716 15-15v-46.679c17.335-4.71 30.125-20.577 30.125-39.383v-370.126c0-22.503-18.309-40.812-40.813-40.812zm-380.937 240.875h30.25v60.375h-30.25zm30.25-30h-30.25v-60.375h30.25zm30.125 271.125h-30.25v-30.25h30.25zm301.25 0h-30.25v-30.25h30.25zm30.125-71.062c0 5.962-4.851 10.812-10.812 10.812h-370.125c-5.962 0-10.812-4.851-10.812-10.812v-79.688h30.25v45.25c0 8.284 6.716 15 15 15h301.25c8.284 0 15-6.716 15-15v-301.25c0-8.284-6.716-15-15-15h-301.25c-8.284 0-15 6.716-15 15v45.25h-30.25v-79.688c-.001-5.961 4.85-10.812 10.812-10.812h370.125c5.962 0 10.812 4.851 10.812 10.812zm-60.25-230.188h-15.23c-8.34 0-15.125-6.785-15.125-15.125s6.785-15.125 15.125-15.125h15.23zm0 120.5h-15.23c-8.34 0-15.125-6.785-15.125-15.125s6.785-15.125 15.125-15.125h15.23zm0-180.75h-15.23c-24.882 0-45.125 20.243-45.125 45.125s20.243 45.125 45.125 45.125h15.23v30.25h-15.23c-24.882 0-45.125 20.243-45.125 45.125s20.243 45.125 45.125 45.125h15.23v30.25h-271.25v-271.25h271.25z"/><path d="m225.875 301.125c41.493 0 75.25-33.757 75.25-75.25s-33.757-75.25-75.25-75.25-75.25 33.757-75.25 75.25 33.757 75.25 75.25 75.25zm0-120.5c24.951 0 45.25 20.299 45.25 45.25 0 19.694-12.651 36.481-30.25 42.684v-42.684c0-8.284-6.716-15-15-15s-15 6.716-15 15v42.684c-17.599-6.203-30.25-22.989-30.25-42.684 0-24.951 20.299-45.25 45.25-45.25z"/></g></svg>