<svg aria-hidden="true" style="position: absolute; width: 0; height: 0; overflow: hidden;" version="1.1" xmlns="http://www.w3.org/2000/svg" xmlns:xlink="http://www.w3.org/1999/xlink">
<defs>
<symbol id="icon-arrows" viewBox="0 0 32 32">
<path d="M12.699 21.178l0.979-1.58c0.235-0.379 0.118-0.868-0.261-1.103-0.372-0.235-0.868-0.118-1.103 0.261l-0.979 1.58c-1.776 2.866-4.309 4.512-6.96 4.512h-3.578c-0.444 0-0.797 0.359-0.797 0.803s0.359 0.803 0.797 0.803h3.585c3.219-0.013 6.249-1.933 8.318-5.276z"></path>
<path d="M31.758 5.795l-3.878-3.885c-0.313-0.313-0.816-0.313-1.13 0s-0.313 0.816 0 1.13l2.52 2.52c-0.007 0-0.007 0-0.013 0h-3.702c-3.212 0-6.249 1.92-8.318 5.263l-0.601 0.973c-0.235 0.379-0.118 0.868 0.261 1.103 0.131 0.078 0.274 0.118 0.418 0.118 0.268 0 0.529-0.137 0.679-0.379l0.601-0.973c1.776-2.866 4.309-4.505 6.96-4.505h3.696c0.007 0 0.007 0 0.013 0l-2.52 2.52c-0.313 0.313-0.313 0.816 0 1.13 0.157 0.157 0.359 0.235 0.568 0.235s0.411-0.078 0.568-0.235l3.885-3.885c0.307-0.313 0.307-0.823-0.007-1.13zM30.054 6.369c0-0.007 0-0.007 0-0.013s0-0.007 0-0.013l0.013 0.013-0.013 0.013z"></path>
<path d="M26.744 30.090c0.157 0.157 0.359 0.235 0.568 0.235s0.411-0.078 0.568-0.235l3.885-3.885c0.313-0.313 0.313-0.816 0-1.13l-3.885-3.878c-0.313-0.313-0.816-0.313-1.13 0s-0.313 0.816 0 1.13l2.52 2.52c-0.007 0-0.007 0-0.013 0h-3.585c-2.644 0-5.184-1.645-6.96-4.512l-5.889-9.513c-2.070-3.35-5.106-5.263-8.318-5.263h-3.709c-0.444 0-0.797 0.359-0.797 0.803s0.359 0.803 0.797 0.803h3.702c2.644 0 5.184 1.645 6.96 4.505l5.889 9.513c2.070 3.35 5.106 5.269 8.318 5.269h3.585c0.007 0 0.007 0 0.013 0l-2.52 2.52c-0.307 0.3-0.307 0.803 0 1.116zM30.054 25.631l0.013 0.013-0.013 0.013c0-0.007 0-0.007 0-0.013s0-0.007 0-0.013z"></path>
</symbol>
<symbol id="icon-clock" viewBox="0 0 32 32">
<path d="M16 0c-8.822 0-16 7.178-16 16s7.178 16 16 16 16-7.178 16-16-7.178-16-16-16zM16 30.933c-8.234 0-14.933-6.699-14.933-14.933s6.699-14.933 14.933-14.933 14.933 6.699 14.933 14.933-6.699 14.933-14.933 14.933z"></path>
<path d="M16 3.2c-0.294 0-0.533 0.238-0.533 0.533v12.267h-8c-0.294 0-0.533 0.238-0.533 0.533s0.239 0.533 0.533 0.533h8.533c0.294 0 0.533-0.238 0.533-0.533v-12.8c0-0.295-0.239-0.533-0.533-0.533z"></path>
</symbol>
<symbol id="icon-compass" viewBox="0 0 32 32">
<path d="M16.542 4.895v-0.633c0.933-0.242 1.627-1.084 1.627-2.092 0-1.196-0.973-2.17-2.169-2.17s-2.169 0.973-2.169 2.17c0 1.008 0.694 1.85 1.627 2.092v0.633c-7.226 0.286-13.017 6.251-13.017 13.546 0 7.477 6.083 13.559 13.559 13.559s13.559-6.083 13.559-13.559c0-7.295-5.791-13.259-13.017-13.546zM14.915 2.17c0-0.598 0.486-1.085 1.085-1.085s1.085 0.486 1.085 1.085-0.486 1.085-1.085 1.085-1.085-0.486-1.085-1.085zM16 30.915c-6.879 0-12.475-5.596-12.475-12.475s5.596-12.475 12.475-12.475 12.475 5.596 12.475 12.475-5.596 12.475-12.475 12.475z"></path>
<path d="M22.66 11.052l-9.204 4.602c-0.014 0.007-0.022 0.022-0.036 0.030-0.037 0.022-0.065 0.050-0.096 0.081s-0.059 0.059-0.081 0.096c-0.008 0.014-0.023 0.022-0.030 0.036l-4.602 9.204c-0.104 0.209-0.063 0.461 0.102 0.626 0.104 0.104 0.243 0.159 0.383 0.159 0.082 0 0.165-0.018 0.242-0.057l9.204-4.602c0.014-0.007 0.022-0.022 0.036-0.030 0.037-0.022 0.065-0.050 0.096-0.081s0.059-0.059 0.081-0.096c0.008-0.014 0.023-0.022 0.030-0.036l4.602-9.204c0.104-0.209 0.063-0.461-0.102-0.626s-0.417-0.206-0.626-0.102zM10.31 24.131l3.538-7.075 3.537 3.537-7.075 3.538zM18.152 19.826l-3.537-3.537 7.075-3.538-3.538 7.075z"></path>
</symbol>
<symbol id="icon-globe" viewBox="0 0 32 32">
<path d="M27.966 26.605c2.507-2.825 4.034-6.54 4.034-10.605 0-4.23-1.653-8.079-4.343-10.943 0 0 0-0.001 0-0.001-0.002-0.003-0.006-0.004-0.007-0.007-2.802-2.979-6.728-4.886-11.095-5.035l-0.001-0.001-0.312-0.008c-0.081-0.003-0.161-0.006-0.242-0.006s-0.162 0.003-0.242 0.006l-0.311 0.008-0.001 0.001c-4.367 0.15-8.293 2.056-11.095 5.035-0.002 0.003-0.006 0.004-0.007 0.007 0 0 0 0.001-0.001 0.001-2.691 2.863-4.344 6.712-4.344 10.942 0 4.066 1.527 7.78 4.034 10.605 0.003 0.005 0.003 0.010 0.007 0.015 0.010 0.014 0.024 0.020 0.035 0.033 2.817 3.149 6.859 5.178 11.37 5.332l0.001 0.001 0.311 0.008c0.081 0.002 0.162 0.005 0.243 0.005s0.162-0.003 0.242-0.006l0.311-0.008 0.001-0.001c4.516-0.155 8.562-2.188 11.379-5.343 0.007-0.009 0.019-0.012 0.025-0.022 0.004-0.004 0.004-0.010 0.008-0.015zM1.117 16.552h6.622c0.062 2.339 0.519 4.611 1.332 6.74-1.569 0.568-3.069 1.329-4.475 2.279-2.067-2.459-3.354-5.593-3.48-9.020zM4.898 6.082c1.373 0.893 2.834 1.608 4.359 2.142-0.934 2.266-1.45 4.709-1.517 7.225h-6.622c0.132-3.59 1.538-6.859 3.781-9.367zM30.883 15.448h-6.622c-0.067-2.516-0.584-4.959-1.517-7.225 1.524-0.534 2.986-1.249 4.359-2.142 2.243 2.508 3.649 5.777 3.781 9.367zM15.448 8.255c-1.595-0.045-3.161-0.283-4.674-0.708 1.118-2.294 2.697-4.365 4.674-6.089v6.797zM15.448 9.359v6.089h-6.605c0.068-2.399 0.571-4.726 1.471-6.883 1.658 0.481 3.38 0.746 5.134 0.793zM16.552 9.359c1.754-0.047 3.476-0.312 5.135-0.793 0.9 2.157 1.403 4.484 1.471 6.883h-6.606v-6.089zM16.552 8.255v-6.797c1.976 1.724 3.555 3.795 4.674 6.089-1.513 0.425-3.079 0.663-4.674 0.708zM22.295 7.212c-1.060-2.221-2.531-4.244-4.352-5.978 3.231 0.423 6.138 1.884 8.377 4.038-1.271 0.807-2.62 1.455-4.025 1.94zM9.705 7.212c-1.405-0.485-2.754-1.134-4.024-1.94 2.238-2.154 5.146-3.615 8.377-4.038-1.822 1.734-3.293 3.757-4.353 5.978zM8.843 16.552h6.605v5.538c-1.825 0.049-3.612 0.333-5.33 0.85-0.776-2.017-1.213-4.171-1.275-6.388zM15.448 23.193v7.348c-2.115-1.846-3.774-4.088-4.902-6.575 1.582-0.466 3.225-0.726 4.902-0.773zM16.552 30.541v-7.348c1.677 0.047 3.32 0.307 4.902 0.772-1.128 2.488-2.786 4.73-4.902 6.575zM16.552 22.090v-5.538h6.605c-0.062 2.217-0.499 4.372-1.276 6.389-1.718-0.518-3.505-0.802-5.33-0.851zM24.26 16.552h6.622c-0.126 3.426-1.412 6.561-3.48 9.020-1.406-0.95-2.906-1.711-4.475-2.279 0.814-2.129 1.27-4.402 1.332-6.74zM5.347 26.398c1.305-0.867 2.695-1.565 4.147-2.086 1.073 2.406 2.614 4.598 4.563 6.454-3.394-0.444-6.431-2.033-8.711-4.368zM17.943 30.766c1.95-1.856 3.49-4.048 4.563-6.454 1.452 0.521 2.841 1.219 4.147 2.086-2.28 2.335-5.317 3.924-8.711 4.368z"></path>
</symbol>
<symbol id="icon-like" viewBox="0 0 32 32">
<path d="M31.947 9.996c-0.467-5.141-4.106-8.871-8.66-8.871-3.034 0-5.812 1.633-7.375 4.249-1.549-2.651-4.213-4.25-7.199-4.25-4.553 0-8.193 3.73-8.66 8.871-0.037 0.227-0.188 1.422 0.272 3.371 0.663 2.811 2.196 5.368 4.43 7.393l11.148 10.117 11.34-10.116c2.235-2.025 3.767-4.582 4.43-7.394 0.46-1.948 0.309-3.144 0.273-3.371zM30.476 13.084c-0.606 2.568-2.009 4.907-4.056 6.76l-10.509 9.376-10.329-9.373c-2.050-1.857-3.453-4.196-4.059-6.763-0.436-1.844-0.257-2.886-0.256-2.893l0.009-0.062c0.4-4.504 3.527-7.774 7.436-7.774 2.884 0 5.424 1.772 6.629 4.625l0.567 1.343 0.567-1.343c1.186-2.809 3.859-4.624 6.812-4.624 3.909 0 7.036 3.27 7.444 7.832 0.001 0.010 0.18 1.052-0.255 2.897z"></path>
</symbol>
<symbol id="icon-mail" viewBox="0 0 32 32">
<path d="M28.094 3.824h-24.18c-2.159 0-3.913 1.755-3.913 3.913v16.526c0 2.159 1.755 3.913 3.913 3.913h24.174c2.159 0 3.913-1.755 3.913-3.913v-16.52c0.007-2.159-1.748-3.92-3.906-3.92zM30.219 24.263c0 1.172-0.953 2.125-2.125 2.125h-24.18c-1.172 0-2.125-0.953-2.125-2.125v-16.52c0-1.172 0.953-2.125 2.125-2.125h24.174c1.172 0 2.125 0.953 2.125 2.125v16.52h0.007z"></path>
<path d="M20.181 15.795l7.826-7.018c0.364-0.331 0.397-0.894 0.066-1.265-0.331-0.364-0.894-0.397-1.265-0.066l-10.792 9.687-2.106-1.88c-0.007-0.007-0.013-0.013-0.013-0.020-0.046-0.046-0.093-0.086-0.146-0.126l-8.568-7.667c-0.371-0.331-0.934-0.298-1.265 0.073s-0.298 0.934 0.073 1.265l7.919 7.078-7.886 7.383c-0.358 0.338-0.377 0.9-0.040 1.265 0.179 0.185 0.417 0.285 0.656 0.285 0.218 0 0.437-0.079 0.609-0.238l8.005-7.489 2.172 1.94c0.172 0.152 0.384 0.225 0.596 0.225s0.43-0.079 0.596-0.232l2.231-2 7.959 7.561c0.172 0.166 0.397 0.245 0.616 0.245 0.238 0 0.47-0.093 0.649-0.278 0.338-0.358 0.324-0.927-0.033-1.265l-7.859-7.462z"></path>
</symbol>
<symbol id="icon-safe" viewBox="0 0 32 32">
<path d="M27.566 0h-23.133c-1.407 0-2.551 1.144-2.551 2.551v23.133c0 1.175 0.799 2.167 1.883 2.461v2.918c0 0.518 0.42 0.938 0.938 0.938h3.766c0.518 0 0.938-0.42 0.938-0.938v-2.828h13.188v2.828c0 0.518 0.42 0.938 0.938 0.938h3.766c0.518 0 0.938-0.42 0.938-0.938v-2.917c1.083-0.294 1.883-1.286 1.883-2.461v-23.133c0-1.406-1.144-2.551-2.551-2.551zM3.758 15.055h1.891v3.773h-1.891zM5.648 13.18h-1.891v-3.773h1.891zM7.531 30.125h-1.891v-1.891h1.891zM26.359 30.125h-1.891v-1.891h1.891zM28.242 25.684c0 0.373-0.303 0.676-0.676 0.676h-23.133c-0.373 0-0.676-0.303-0.676-0.676v-4.98h1.891v2.828c0 0.518 0.42 0.938 0.938 0.938h18.828c0.518 0 0.938-0.42 0.938-0.938v-18.828c0-0.518-0.42-0.938-0.938-0.938h-18.828c-0.518 0-0.938 0.42-0.938 0.938v2.828h-1.891v-4.981c-0-0.373 0.303-0.676 0.676-0.676h23.133c0.373 0 0.676 0.303 0.676 0.676zM24.477 11.297h-0.952c-0.521 0-0.945-0.424-0.945-0.945s0.424-0.945 0.945-0.945h0.952zM24.477 18.828h-0.952c-0.521 0-0.945-0.424-0.945-0.945s0.424-0.945 0.945-0.945h0.952zM24.477 7.531h-0.952c-1.555 0-2.82 1.265-2.82 2.82s1.265 2.82 2.82 2.82h0.952v1.891h-0.952c-1.555 0-2.82 1.265-2.82 2.82s1.265 2.82 2.82 2.82h0.952v1.891h-16.953v-16.953h16.953z"></path>
<path d="M14.117 18.82c2.593 0 4.703-2.11 4.703-4.703s-2.11-4.703-4.703-4.703-4.703 2.11-4.703 4.703 2.11 4.703 4.703 4.703zM14.117 11.289c1.559 0 2.828 1.269 2.828 2.828 0 1.231-0.791 2.28-1.891 2.668v-2.668c0-0.518-0.42-0.938-0.938-0.938s-0.938 0.42-0.938 0.938v2.668c-1.1-0.388-1.891-1.437-1.891-2.668 0-1.559 1.269-2.828 2.828-2.828z"></path>
</symbol>
<symbol id="icon-settings" viewBox="0 0 32 32">
<path d="M30.362 12.641l-2.246-0.381c-0.234-0.755-0.535-1.484-0.902-2.179l1.324-1.852c0.562-0.789 0.475-1.865-0.214-2.547l-1.992-1.992c-0.374-0.374-0.869-0.582-1.397-0.582-0.414 0-0.809 0.127-1.143 0.368l-1.858 1.324c-0.722-0.381-1.477-0.695-2.259-0.929l-0.374-2.219c-0.16-0.956-0.983-1.651-1.952-1.651h-2.814c-0.969 0-1.791 0.695-1.952 1.651l-0.388 2.273c-0.749 0.234-1.477 0.541-2.173 0.916l-1.838-1.324c-0.334-0.241-0.735-0.368-1.15-0.368-0.528 0-1.029 0.207-1.397 0.582l-1.999 1.992c-0.682 0.682-0.775 1.758-0.214 2.547l1.337 1.878c-0.368 0.702-0.662 1.431-0.889 2.186l-2.219 0.374c-0.956 0.16-1.651 0.983-1.651 1.952v2.814c0 0.969 0.695 1.791 1.651 1.952l2.273 0.388c0.234 0.749 0.541 1.477 0.916 2.173l-1.317 1.832c-0.562 0.789-0.475 1.865 0.214 2.547l1.992 1.992c0.374 0.374 0.869 0.582 1.397 0.582 0.414 0 0.809-0.127 1.143-0.368l1.878-1.337c0.675 0.354 1.384 0.642 2.112 0.869l0.374 2.246c0.16 0.956 0.983 1.651 1.952 1.651h2.821c0.969 0 1.791-0.695 1.952-1.651l0.381-2.246c0.755-0.234 1.484-0.535 2.179-0.902l1.852 1.324c0.334 0.241 0.735 0.368 1.15 0.368v0c0.528 0 1.023-0.207 1.397-0.582l1.992-1.992c0.682-0.682 0.775-1.758 0.214-2.547l-1.324-1.858c0.368-0.702 0.675-1.431 0.902-2.179l2.246-0.374c0.956-0.16 1.651-0.983 1.651-1.952v-2.814c0.013-0.969-0.682-1.791-1.638-1.952zM30.208 17.407c0 0.087-0.060 0.16-0.147 0.174l-2.808 0.468c-0.354 0.060-0.635 0.321-0.722 0.662-0.254 0.983-0.642 1.925-1.163 2.801-0.18 0.308-0.167 0.689 0.040 0.983l1.651 2.326c0.047 0.067 0.040 0.167-0.020 0.227l-1.992 1.992c-0.047 0.047-0.094 0.053-0.127 0.053-0.040 0-0.074-0.013-0.1-0.033l-2.32-1.651c-0.287-0.207-0.675-0.221-0.983-0.040-0.876 0.521-1.818 0.909-2.801 1.163-0.348 0.087-0.608 0.374-0.662 0.722l-0.475 2.808c-0.013 0.087-0.087 0.147-0.174 0.147h-2.814c-0.087 0-0.16-0.060-0.174-0.147l-0.468-2.808c-0.060-0.354-0.321-0.635-0.662-0.722-0.956-0.247-1.878-0.628-2.741-1.123-0.14-0.080-0.301-0.12-0.455-0.12-0.181 0-0.368 0.053-0.521 0.167l-2.34 1.665c-0.033 0.020-0.067 0.033-0.1 0.033-0.027 0-0.080-0.007-0.127-0.053l-1.992-1.992c-0.060-0.060-0.067-0.154-0.020-0.227l1.644-2.306c0.207-0.294 0.221-0.682 0.040-0.989-0.521-0.869-0.923-1.812-1.176-2.794-0.094-0.341-0.374-0.602-0.722-0.662l-2.828-0.481c-0.087-0.013-0.147-0.087-0.147-0.174v-2.814c0-0.087 0.060-0.16 0.147-0.174l2.788-0.468c0.354-0.060 0.642-0.321 0.729-0.668 0.247-0.983 0.628-1.932 1.143-2.808 0.181-0.307 0.16-0.689-0.047-0.976l-1.665-2.34c-0.047-0.067-0.040-0.167 0.020-0.227l1.992-1.992c0.047-0.047 0.094-0.053 0.127-0.053 0.040 0 0.074 0.013 0.1 0.033l2.306 1.644c0.294 0.207 0.682 0.221 0.989 0.040 0.869-0.521 1.812-0.923 2.794-1.176 0.341-0.094 0.602-0.374 0.662-0.722l0.481-2.828c0.013-0.087 0.087-0.147 0.174-0.147h2.814c0.087 0 0.16 0.060 0.174 0.147l0.468 2.788c0.060 0.354 0.321 0.642 0.668 0.729 1.009 0.254 1.972 0.648 2.868 1.176 0.308 0.181 0.689 0.167 0.983-0.040l2.306-1.658c0.033-0.020 0.067-0.033 0.1-0.033 0.027 0 0.080 0.007 0.127 0.053l1.992 1.992c0.060 0.060 0.067 0.154 0.020 0.227l-1.651 2.32c-0.207 0.287-0.221 0.675-0.040 0.983 0.521 0.876 0.909 1.818 1.163 2.801 0.087 0.348 0.374 0.608 0.722 0.662l2.808 0.475c0.087 0.013 0.147 0.087 0.147 0.174v2.814h-0.007z"></path>
<path d="M16.003 9.091c-3.81 0-6.905 3.095-6.905 6.905s3.095 6.905 6.905 6.905 6.905-3.095 6.905-6.905-3.095-6.905-6.905-6.905zM16.003 21.097c-2.814 0-5.1-2.286-5.1-5.1s2.286-5.1 5.1-5.1 5.1 2.286 5.1 5.1-2.286 5.1-5.1 5.1z"></path>
</symbol>
<symbol id="icon-shop" viewBox="0 0 32 32">
<path d="M10.31 20.688h0.001c0.001 0 0.002-0 0.004-0h16.997c0.418 0 0.786-0.278 0.901-0.68l3.75-13.125c0.081-0.283 0.024-0.587-0.153-0.822s-0.454-0.373-0.749-0.373h-22.915l-0.67-3.016c-0.095-0.429-0.476-0.734-0.915-0.734h-5.625c-0.518 0-0.938 0.42-0.938 0.938s0.42 0.938 0.938 0.938h4.873c0.119 0.534 3.207 14.432 3.385 15.232-0.996 0.433-1.695 1.427-1.695 2.581 0 1.551 1.262 2.813 2.813 2.813h17c0.518 0 0.938-0.42 0.938-0.938s-0.42-0.938-0.938-0.938h-17c-0.517 0-0.938-0.421-0.938-0.938s0.419-0.936 0.935-0.937zM29.82 7.563l-3.214 11.25h-15.541l-2.5-11.25z"></path>
<path d="M9.375 27.25c0 1.551 1.262 2.813 2.813 2.813s2.813-1.262 2.813-2.813-1.262-2.813-2.813-2.813-2.813 1.262-2.813 2.813zM12.188 26.313c0.517 0 0.938 0.421 0.938 0.938s-0.421 0.938-0.938 0.938-0.938-0.421-0.938-0.938 0.421-0.938 0.938-0.938z"></path>
<path d="M22.625 27.25c0 1.551 1.262 2.813 2.813 2.813s2.813-1.262 2.813-2.813-1.262-2.813-2.813-2.813-2.813 1.262-2.813 2.813zM25.438 26.313c0.517 0 0.938 0.421 0.938 0.938s-0.421 0.938-0.938 0.938-0.938-0.421-0.938-0.938 0.421-0.938 0.938-0.938z"></path>
</symbol>
<symbol id="icon-tel" viewBox="0 0 32 32">
<path d="M22.998 32c-1.033 0-2.057-0.183-3.059-0.546-4.412-1.603-8.508-4.213-11.844-7.549s-5.947-7.432-7.549-11.844c-0.515-1.418-0.667-2.882-0.452-4.351 0.202-1.376 0.735-2.712 1.541-3.863 0.81-1.156 1.89-2.118 3.123-2.781 1.315-0.707 2.75-1.066 4.266-1.066 0.471 0 0.879 0.329 0.978 0.79l1.57 7.325c0.071 0.332-0.031 0.677-0.271 0.917l-2.682 2.682c2.53 5.030 6.635 9.136 11.666 11.666l2.682-2.682c0.24-0.24 0.585-0.342 0.917-0.271l7.325 1.57c0.461 0.099 0.79 0.506 0.79 0.978 0 1.516-0.359 2.951-1.066 4.266-0.663 1.233-1.625 2.313-2.781 3.123-1.151 0.807-2.487 1.34-3.863 1.541-0.431 0.063-0.862 0.095-1.292 0.095zM8.227 2.044c-2 0.221-3.774 1.269-4.953 2.951-1.325 1.891-1.634 4.218-0.848 6.383 3.081 8.483 9.714 15.115 18.196 18.196 2.165 0.786 4.491 0.477 6.383-0.848 1.682-1.179 2.73-2.953 2.951-4.953l-5.959-1.277-2.801 2.801c-0.298 0.298-0.751 0.377-1.132 0.198-5.949-2.795-10.765-7.61-13.56-13.56-0.179-0.381-0.1-0.834 0.198-1.132l2.801-2.801z"></path>
</symbol>
</defs>
</svg>
